<svg id="Group_239" data-name="Group 239" xmlns="http://www.w3.org/2000/svg" width="14.218" height="13.843" viewBox="0 0 14.218 13.843">
  <g id="Group_238" data-name="Group 238" transform="translate(0 0)">
    <g id="Group_237" data-name="Group 237">
      <g id="Group_236" data-name="Group 236">
        <g id="Group_235" data-name="Group 235">
          <path id="Path_342" data-name="Path 342" d="M208.8,207.958h-9.06a2.553,2.553,0,0,0-2.579,2.511v8.822a2.553,2.553,0,0,0,2.579,2.511h9.06a2.553,2.553,0,0,0,2.579-2.511v-8.822A2.553,2.553,0,0,0,208.8,207.958Zm-1.673,1.945a.556.556,0,0,1,.583-.55h1.695a.56.56,0,0,1,.573.458.46.46,0,0,1,.007.087c0,.541,0,1.081,0,1.62a.546.546,0,0,1-.475.54.615.615,0,0,1-.109.006h-.847c-.282,0-.564,0-.847,0a.543.543,0,0,1-.578-.549Q207.131,210.711,207.131,209.9Zm-2.857,2.163a2.717,2.717,0,1,1-2.857,2.714A2.789,2.789,0,0,1,204.274,212.066Zm5.714,1.7v4.823c0,.356,0,.712,0,1.068a.542.542,0,0,1-.455.532.814.814,0,0,1-.161.012q-2.462,0-4.922,0h-5.27a.769.769,0,0,1-.224-.027.545.545,0,0,1-.395-.471c0-.029,0-.059,0-.087V213.7h1.289a4.093,4.093,0,0,0,.442,3.213,4.366,4.366,0,0,0,1.783,1.676,4.746,4.746,0,0,0,5.88-1.228,4.15,4.15,0,0,0,.748-3.66h1.286Z" transform="translate(-197.165 -207.958)" fill="#2c3a61"/>
        </g>
      </g>
    </g>
  </g>
</svg>
