<svg xmlns="http://www.w3.org/2000/svg" width="17.471" height="14.171" viewBox="0 0 17.471 14.171">
  <path id="Path_357" data-name="Path 357" d="M43.532,16.171A10.1,10.1,0,0,0,53.724,5.979V5.494A7.889,7.889,0,0,0,55.471,3.65a8.057,8.057,0,0,1-2.038.582,3.776,3.776,0,0,0,1.553-1.941,8.9,8.9,0,0,1-2.232.874A3.466,3.466,0,0,0,50.133,2a3.647,3.647,0,0,0-3.591,3.591,1.892,1.892,0,0,0,.1.776,10.035,10.035,0,0,1-7.377-3.785,3.717,3.717,0,0,0-.485,1.844,3.856,3.856,0,0,0,1.553,3.009,3.272,3.272,0,0,1-1.65-.485h0a3.547,3.547,0,0,0,2.912,3.494,2.992,2.992,0,0,1-.971.1,1.652,1.652,0,0,1-.679-.1,3.677,3.677,0,0,0,3.4,2.524,7.328,7.328,0,0,1-4.465,1.553,2.687,2.687,0,0,1-.874-.1,9.161,9.161,0,0,0,5.532,1.747" transform="translate(-38 -2)" fill="#2c3a61" fill-rule="evenodd"/>
</svg>
